# xmcd
#
# Track frame offsets:
#	150
#	16857
#	33588
#	50666
#	68308
#	86538
#	100812
#	117453
#	136041
#	152758
#	171813
#	189030
#
# Disc length: 2680 seconds
#
# Revision: 1
# Processed by: cddbd v1.5.1PL2 Copyright (c) Steve Scherf et al.
# Submitted via: EasyCDDAExtractor 9.0.0.1
#
DISCID=8b0a760c
DTITLE=Fleetwood Mac - Tango In The Night
DYEAR=1987
DGENRE=Blues
TTITLE0=Big Love
TTITLE1=Seven Wonders
TTITLE2=Everywhere
TTITLE3=Caroline
TTITLE4=Tango In The Night
TTITLE5=Mystified
TTITLE6=Little Lies
TTITLE7=Family Man
TTITLE8=Welcome To The Room - Sara
TTITLE9=Isn't It Midnight
TTITLE10=When I See You Again
TTITLE11=You And I, Part II
EXTD=
EXTT0=
EXTT1=
EXTT2=
EXTT3=
EXTT4=
EXTT5=
EXTT6=
EXTT7=
EXTT8=
EXTT9=
EXTT10=
EXTT11=
PLAYORDER=
